<?xml version="1.0" encoding="UTF-8" standalone="no"?>
<!-- Created with Inkscape (http://www.inkscape.org/) -->

<svg
   version="1.1"
   id="svg2"
   xml:space="preserve"
   width="1071.411"
   height="1071.6375"
   viewBox="0 0 1071.411 1071.6375"
   xmlns="http://www.w3.org/2000/svg"
   xmlns:svg="http://www.w3.org/2000/svg"><defs
     id="defs6"><clipPath
       clipPathUnits="userSpaceOnUse"
       id="clipPath16"><path
         d="M 0,2.4414063e-4 H 3375 V 3375.0002 H 0 Z"
         clip-rule="evenodd"
         id="path14" /></clipPath><clipPath
       clipPathUnits="userSpaceOnUse"
       id="clipPath28"><path
         d="M 0,2.4414063e-4 H 3375 V 3375.0002 H 0 Z"
         clip-rule="evenodd"
         id="path26" /></clipPath><clipPath
       clipPathUnits="userSpaceOnUse"
       id="clipPath40"><path
         d="M 0,2.4414063e-4 H 3375 V 3370.1064 H 0 Z"
         clip-rule="evenodd"
         id="path38" /></clipPath></defs><g
     id="g8"
     transform="matrix(0.31999998,0,0,0.31999998,-4.168753,-6.796455)"><g
       id="g34"><g
         id="g36"
         clip-path="url(#clipPath40)"><g
           id="g42"
           transform="matrix(72.785637,0,0,72.785637,-131.91168,-123.60425)"><path
             d="m 20.200001,38.389999 c -0.372477,1.76e-4 -0.744608,-0.01107 -1.116394,-0.03374 -0.371786,-0.02267 -0.742527,-0.05672 -1.112223,-0.10215 -0.369696,-0.04543 -0.73765,-0.102161 -1.103863,-0.170188 -0.366213,-0.06802 -0.729995,-0.147213 -1.091346,-0.237572 -0.361352,-0.09036 -0.719591,-0.191715 -1.074718,-0.30407 -0.355128,-0.112354 -0.706475,-0.235492 -1.054042,-0.369419 -0.347567,-0.13393 -0.690701,-0.278389 -1.0294,-0.433384 C 12.279318,36.58448 11.945693,36.419247 11.61714,36.243771 11.288587,36.068291 10.965726,35.882904 10.648556,35.687607 10.331386,35.492306 10.020503,35.287464 9.71591,35.073078 9.4113159,34.858692 9.1135845,34.635162 8.8227148,34.402493 8.5318451,34.169823 8.2483854,33.928455 7.9723353,33.678387 7.6962852,33.428314 7.4281645,33.170013 7.167973,32.903484 6.9077826,32.636948 6.6560111,32.362686 6.4126587,32.080696 6.1693063,31.798704 5.9348316,31.509514 5.7092347,31.213127 5.4836378,30.916739 5.2673435,30.613712 5.0603518,30.304047 4.8533597,29.994379 4.6560602,29.678656 4.4684534,29.356874 4.2808461,29.035095 4.1032848,28.707865 3.9357691,28.375183 3.7682528,28.042501 3.6110978,27.704994 3.4643037,27.362661 3.3175097,27.02033 3.1813529,26.67382 3.0558338,26.32313 2.9303145,25.972437 2.8156691,25.618227 2.7118976,25.260498 2.6081259,24.902769 2.5154235,24.542192 2.4337902,24.178772 2.3521569,23.815351 2.2817464,23.449768 2.2225587,23.082022 2.1633713,22.714277 2.1155181,22.345064 2.0789993,21.97438 2.0424805,21.603699 2.017365,21.232246 2.0036526,20.860022 c -0.013712,-0.372223 -0.015996,-0.744517 -0.00685,-1.116883 0.00915,-0.372366 0.029702,-0.7441 0.061671,-1.115204 0.031969,-0.371103 0.075289,-0.740875 0.1299613,-1.109317 0.054672,-0.368445 0.1205924,-0.734864 0.1977615,-1.099257 0.077169,-0.364397 0.1654415,-0.726082 0.264817,-1.085057 0.099375,-0.358976 0.209667,-0.714566 0.3308747,-1.066771 0.1212077,-0.352204 0.2531035,-0.70036 0.3956871,-1.044466 C 3.5201588,12.878961 3.6731618,12.539552 3.8365844,12.204841 4.000007,11.870129 4.1735414,11.540744 4.3571871,11.216686 4.5408325,10.892629 4.7342443,10.574508 4.9374213,10.262325 5.1405993,9.9501429 5.3531599,9.6444855 5.5751042,9.3453531 5.7970481,9.0462208 6.0279574,8.7541771 6.2678318,8.4692221 6.5077066,8.184267 6.7560949,7.9069376 7.0129972,7.6372333 7.2698984,7.3675289 7.5348301,7.1059575 7.8077922,6.852519 8.0807533,6.5990806 8.3612318,6.3542523 8.6492252,6.1180344 8.9372187,5.8818169 9.2321863,5.6546545 9.5341263,5.4365468 9.8360672,5.2184391 10.144413,5.0097976 10.459165,4.8106217 c 0.31475,-0.1991763 0.635314,-0.3885111 0.961689,-0.5680055 0.326376,-0.1794944 0.657949,-0.34881 0.99472,-0.5079465 0.33677,-0.1591365 0.678104,-0.3077948 1.024003,-0.4459744 0.345899,-0.1381795 0.69571,-0.2656202 1.049433,-0.3823223 0.353722,-0.1167023 0.71069,-0.2224462 1.070905,-0.3172314 0.360215,-0.094785 0.722998,-0.1784334 1.088349,-0.2509448 0.365351,-0.072511 0.73258,-0.1337491 1.101692,-0.1837132 0.369112,-0.049964 0.739407,-0.088561 1.110888,-0.1157904 0.371481,-0.027229 0.743446,-0.04304 1.115896,-0.047431 0.37245,-0.00439 0.744686,0.00264 1.116707,0.021107 0.372019,0.018463 0.743122,0.048318 1.113308,0.089565 0.370186,0.041247 0.738758,0.09381 1.105718,0.1576867 0.366959,0.063877 0.731612,0.1389477 1.09396,0.2252133 0.362349,0.086265 0.721712,0.1835629 1.078089,0.2918925 0.356377,0.1083293 0.709095,0.2274868 1.058153,0.3574724 0.349062,0.1299853 0.693808,0.2705541 1.034237,0.4217062 0.340429,0.1511517 0.675901,0.312602 1.006418,0.4843509 0.330515,0.1717496 0.655455,0.3534737 0.974816,0.5451732 0.319356,0.191699 0.632535,0.3930125 0.939537,0.6039405 0.306999,0.2109279 0.60724,0.4310727 0.900726,0.6604347 0.293482,0.2293611 0.579655,0.4675078 0.858515,0.7144394 0.278862,0.246932 0.549888,0.5021839 0.813076,0.7657561 0.158054,0.1578641 0.313152,0.3185849 0.465286,0.4821625 0.152134,0.163578 0.301201,0.3299017 0.447201,0.498971 0.146007,0.1690702 0.288849,0.3407726 0.428528,0.5151052 0.139679,0.1743327 0.2761,0.3511782 0.409263,0.5305367 0.133164,0.1793585 0.262982,0.3611078 0.38945,0.5452499 0.126461,0.1841406 0.249493,0.3705486 0.369095,0.5592216 0.119602,0.188674 0.235687,0.379488 0.348255,0.572439 0.112568,0.192951 0.221546,0.38791 0.326935,0.584876 0.105389,0.196966 0.207111,0.395806 0.305176,0.596521 0.09806,0.200714 0.19239,0.403166 0.282993,0.607354 0.0906,0.204191 0.177418,0.409978 0.260437,0.617365 0.08302,0.207388 0.162193,0.416234 0.237518,0.626538 0.07533,0.210306 0.146756,0.421926 0.214287,0.634862 0.06753,0.212936 0.131111,0.427043 0.19075,0.642321 0.05964,0.215279 0.115303,0.431583 0.166974,0.648912 0.05167,0.217329 0.09933,0.435538 0.142959,0.654622 0.04363,0.219085 0.08322,0.4389 0.118752,0.659441 0.03554,0.220542 0.067,0.441665 0.09439,0.663368 0.02739,0.221704 0.05069,0.443836 0.06989,0.666397 0.0192,0.222561 0.0343,0.4454 0.04529,0.668516 0.01099,0.223116 0.01788,0.44636 0.02065,0.669731 0.0028,0.223372 0.0014,0.446717 -0.004,0.670037 -0.0055,0.223321 -0.01503,0.446466 -0.02871,0.669433 -0.01368,0.222967 -0.03146,0.445608 -0.05335,0.667921 -0.02188,0.222313 -0.04785,0.444149 -0.07791,0.665507 -0.03006,0.221357 -0.06418,0.442085 -0.102367,0.662183 -0.03818,0.220101 -0.08041,0.439423 -0.126682,0.657965 -0.04627,0.218546 -0.09655,0.436163 -0.150833,0.652853 -0.05429,0.21669 -0.112542,0.432308 -0.174771,0.646853 -0.06223,0.214544 -0.128391,0.427869 -0.198479,0.639976 -0.07009,0.212109 -0.144062,0.422853 -0.221916,0.632235 -0.07785,0.209383 -0.159538,0.417261 -0.245052,0.623632 -0.08551,0.206373 -0.174797,0.411102 -0.267853,0.614187 -0.09306,0.203085 -0.189819,0.404385 -0.290287,0.603903 -0.100471,0.199518 -0.204582,0.39712 -0.312332,0.592802 -0.10775,0.195683 -0.21907,0.389315 -0.333958,0.580896 -0.114887,0.191582 -0.233261,0.380982 -0.355121,0.5682 -0.121865,0.187219 -0.247135,0.372133 -0.375817,0.554737 -0.128673,0.182605 -0.260669,0.362779 -0.395984,0.540519 -0.135311,0.177742 -0.273854,0.352932 -0.415623,0.525568 -0.141766,0.17264 -0.286663,0.342608 -0.434692,0.509909 -0.14803,0.167301 -0.299092,0.331818 -0.453186,0.493549 -0.154091,0.161732 -0.311108,0.320576 -0.471054,0.476529 -0.159943,0.155948 -0.322705,0.308899 -0.488286,0.458851 -0.165576,0.149951 -0.333862,0.296806 -0.50485,0.440555 -0.17099,0.143749 -0.344568,0.284306 -0.520737,0.421661 -0.176168,0.13736 -0.354805,0.271428 -0.535913,0.402203 -0.181107,0.130779 -0.364561,0.258175 -0.550362,0.382187 -0.185798,0.12402 -0.373819,0.244575 -0.56406,0.361664 -0.190243,0.117092 -0.382576,0.230636 -0.577002,0.340637 -0.194425,0.110004 -0.39081,0.216393 -0.589155,0.319164 -0.198343,0.102768 -0.398514,0.201847 -0.600509,0.297241 -0.201996,0.0954 -0.40568,0.187039 -0.611052,0.27493 -0.205372,0.08789 -0.412292,0.171962 -0.620764,0.252227 -0.208467,0.08026 -0.418342,0.156666 -0.629627,0.229203 -0.211283,0.07253 -0.423832,0.141147 -0.637646,0.205852 -0.213812,0.06471 -0.428741,0.125446 -0.644792,0.182228 -0.216049,0.05679 -0.433071,0.109577 -0.651066,0.158364 -0.217995,0.04879 -0.436813,0.09355 -0.656456,0.134277 -0.219645,0.04073 -0.439964,0.0774 -0.660959,0.110004 -0.220995,0.03261 -0.442515,0.06114 -0.664559,0.08559 -0.222046,0.02445 -0.444467,0.0448 -0.667263,0.06105 -0.222795,0.01626 -0.445814,0.0284 -0.669058,0.03644 -0.223241,0.008 -0.446558,0.01196 -0.669946,0.01177 z M 20.200001,6 c -0.2713,-6.089e-4 -0.542395,0.00655 -0.813282,0.021481 -0.270891,0.01493 -0.541132,0.037604 -0.810723,0.068023 -0.269588,0.030419 -0.538086,0.068534 -0.805492,0.1143418 -0.267405,0.045809 -0.533279,0.099237 -0.797625,0.160284 -0.264341,0.061048 -0.52672,0.1296153 -0.787134,0.2057014 -0.260412,0.076086 -0.518432,0.1595673 -0.774061,0.2504425 C 15.156056,6.9111497 14.90324,7.00927 14.653236,7.1146362 14.403232,7.2200025 14.156449,7.3324407 13.91289,7.4519518 13.66933,7.5714629 13.429393,7.69785 13.193078,7.8311131 12.956762,7.9643767 12.724457,8.1042974 12.496161,8.2508753 12.267866,8.3974541 12.043955,8.5504501 11.824429,8.7098625 11.604902,8.8692749 11.390121,9.0348423 11.180084,9.2065657 10.970048,9.3782881 10.765101,9.5558842 10.565245,9.7393549 10.365388,9.9228256 10.170948,10.111868 9.981926,10.306482 c -0.1890211,0.194615 -0.3723154,0.394482 -0.549881,0.599603 -0.1775665,0.205121 -0.3491135,0.415157 -0.5146408,0.630111 -0.1655274,0.214953 -0.3247633,0.43447 -0.4777079,0.65855 -0.1529455,0.22408 -0.2993488,0.452355 -0.4392099,0.684826 -0.1398616,0.232472 -0.2729512,0.468758 -0.3992687,0.708858 -0.1263184,0.240099 -0.2456574,0.483619 -0.3580179,0.730559 -0.11236,0.24694 -0.2175565,0.496895 -0.3155899,0.749864 -0.098033,0.252969 -0.1887426,0.508538 -0.2721276,0.766706 -0.083385,0.258168 -0.1593084,0.518514 -0.2277708,0.781035 -0.068463,0.26252 -0.1293526,0.526785 -0.1826687,0.792795 -0.053316,0.266009 -0.09897,0.533328 -0.1369643,0.801957 -0.037994,0.268627 -0.068265,0.538122 -0.090812,0.808483 -0.022547,0.270363 -0.037335,0.541149 -0.044361,0.812359 -0.00703,0.271209 -0.00628,0.542398 0.00224,0.813566 0.00852,0.271168 0.024792,0.541868 0.048825,0.812103 0.024033,0.270233 0.055785,0.539557 0.095254,0.80797 0.03947,0.268416 0.086594,0.535479 0.1413703,0.801192 0.054777,0.265714 0.1171174,0.52964 0.1870222,0.79178 0.069905,0.26214 0.1472583,0.522062 0.2320609,0.779768 0.084802,0.257708 0.1769147,0.512773 0.2763367,0.7652 0.099423,0.252428 0.2059917,0.5018 0.3197069,0.748117 0.1137156,0.246319 0.2343912,0.48918 0.3620267,0.728581 0.1276359,0.2394 0.262022,0.474952 0.4031586,0.706651 0.1411372,0.231699 0.2887917,0.459168 0.4429655,0.682404 0.1541748,0.223238 0.3146153,0.441875 0.4813223,0.655914 0.1667052,0.214041 0.3394032,0.423132 0.5180941,0.627274 0.1786909,0.204141 0.36308,0.402998 0.5531693,0.596573 0.190088,0.193571 0.385563,0.381542 0.586425,0.563911 0.200863,0.182369 0.406783,0.358837 0.61776,0.529404 0.210976,0.170566 0.426665,0.334951 0.647064,0.493152 0.220399,0.158205 0.445147,0.309967 0.674245,0.455288 0.229098,0.145321 0.462169,0.283962 0.699213,0.415924 0.237044,0.131966 0.477673,0.257035 0.721887,0.375202 0.244212,0.118168 0.491607,0.229249 0.742186,0.333241 0.250579,0.103992 0.50393,0.200726 0.760054,0.290192 0.256123,0.08947 0.5146,0.171535 0.775427,0.246185 0.260828,0.07465 0.523578,0.141777 0.788253,0.20137 0.264674,0.05959 0.530838,0.111557 0.798491,0.155895 0.267654,0.04434 0.536358,0.08098 0.80611,0.109913 0.269753,0.02894 0.540112,0.05013 0.811079,0.06357 0.270968,0.01344 0.542099,0.01912 0.813393,0.01702 0.271292,-0.0021 0.542301,-0.01197 0.813028,-0.02961 0.270729,-0.01763 0.54073,-0.043 0.81,-0.07611 0.269273,-0.03311 0.537378,-0.07391 0.804311,-0.122383 0.266936,-0.04847 0.532263,-0.104553 0.795983,-0.16824 0.263719,-0.06368 0.5254,-0.134864 0.785042,-0.213546 0.259641,-0.07868 0.516817,-0.16473 0.771526,-0.258156 0.254707,-0.09342 0.506531,-0.194058 0.75547,-0.301918 0.24894,-0.107857 0.494587,-0.222752 0.736943,-0.344689 0.242353,-0.121936 0.481016,-0.250713 0.71599,-0.386329 0.234974,-0.135617 0.465871,-0.277848 0.692693,-0.426697 0.22682,-0.14885 0.44919,-0.304073 0.667115,-0.465672 0.217924,-0.161596 0.431043,-0.329298 0.639354,-0.503109 0.208311,-0.173811 0.411475,-0.353445 0.60949,-0.538902 0.198015,-0.185457 0.390558,-0.37643 0.577627,-0.572922 0.187071,-0.196491 0.368359,-0.398178 0.543867,-0.605062 0.175509,-0.206881 0.344952,-0.418619 0.508326,-0.635216 0.163374,-0.216595 0.320409,-0.437691 0.471111,-0.663286 0.150701,-0.225596 0.294821,-0.45532 0.432352,-0.689177 0.137535,-0.233854 0.268257,-0.471456 0.39217,-0.712806 0.12392,-0.241351 0.240822,-0.48605 0.350712,-0.734099 0.10989,-0.248049 0.212585,-0.49904 0.308086,-0.752975 0.09551,-0.253935 0.183659,-0.510395 0.264462,-0.769385 0.08081,-0.258989 0.154125,-0.520078 0.219963,-0.78327 0.06584,-0.263189 0.124088,-0.528049 0.174747,-0.794578 0.05066,-0.266529 0.09364,-0.53429 0.128948,-0.803284 0.03531,-0.268991 0.06289,-0.538774 0.08274,-0.809349 0.01984,-0.270574 0.03193,-0.541494 0.03625,-0.812763 0.0043,-0.271265 8.66e-4,-0.542433 -0.01036,-0.813501 -0.01122,-0.271069 -0.0302,-0.541594 -0.05693,-0.811575 -0.02673,-0.26998 -0.06117,-0.538975 -0.103317,-0.806982 -0.04215,-0.268008 -0.09193,-0.534586 -0.149365,-0.79974 -0.05743,-0.265152 -0.122398,-0.528443 -0.194915,-0.789873 C 33.778944,16.142917 33.698998,15.883779 33.61163,15.62693 33.52426,15.370084 33.429608,15.11595 33.327671,14.864528 33.225735,14.613106 33.11668,14.364808 33.000511,14.119637 32.884342,13.874465 32.76125,13.632822 32.631226,13.394706 32.501209,13.15659 32.364475,12.922393 32.221031,12.692114 32.077591,12.461836 31.927672,12.235854 31.771275,12.014168 31.61488,11.792482 31.452265,11.575456 31.28343,11.36309 31.114594,11.150724 30.939817,10.943367 30.7591,10.741019 30.578379,10.538671 30.392012,10.341665 30.200001,10.15 29.872503,9.8223286 29.529751,9.5114784 29.17174,9.2174492 28.813732,8.92342 28.442188,8.647624 28.057108,8.3900604 27.672029,8.1324987 27.275267,7.8944087 26.866819,7.6757894 26.45837,7.45717 26.040197,7.2590723 25.612305,7.0814967 25.184416,6.9039226 24.748859,6.7477231 24.305635,6.6128983 23.862411,6.4780741 23.413652,6.3652725 22.959356,6.2744946 22.505062,6.1837168 22.047417,6.1153979 21.586416,6.0695391 21.125416,6.0236797 20.663279,6.0005002 20.200001,6 Z"
             style="fill:#a6a6a6;fill-opacity:1;fill-rule:nonzero;stroke:none"
             id="path44" /><path
             d="M 46,48 C 45.868885,47.999447 45.739082,47.98613 45.610588,47.96004 45.48209,47.93396 45.357368,47.89562 45.236416,47.845008 45.115463,47.794398 45.000595,47.732486 44.891819,47.659285 44.783043,47.586086 44.682434,47.502991 44.59,47.41 L 30.24,33.07 c -0.04634,-0.04634 -0.0903,-0.09484 -0.13188,-0.145504 -0.04158,-0.05066 -0.08057,-0.103245 -0.116983,-0.157738 -0.03641,-0.05449 -0.07006,-0.110638 -0.10096,-0.168438 -0.03089,-0.0578 -0.05888,-0.116978 -0.08397,-0.177528 -0.02508,-0.06055 -0.04713,-0.122181 -0.06616,-0.184899 -0.01903,-0.06272 -0.03493,-0.126213 -0.04772,-0.190494 -0.01278,-0.06428 -0.02239,-0.129032 -0.02881,-0.194254 -0.0064,-0.06522 -0.0096,-0.130606 -0.0096,-0.196146 2e-6,-0.06554 0.0032,-0.130919 0.0096,-0.196142 0.0064,-0.06522 0.01603,-0.129977 0.02881,-0.194258 0.01279,-0.06428 0.02869,-0.127775 0.04772,-0.190491 0.01902,-0.06271 0.04107,-0.124348 0.06615,-0.1849 0.02508,-0.06055 0.05307,-0.119723 0.08397,-0.177525 0.03089,-0.0578 0.06455,-0.113947 0.100958,-0.168441 0.03641,-0.05449 0.07541,-0.107071 0.116983,-0.157734 0.04158,-0.05066 0.08554,-0.09917 0.131882,-0.145508 0.04634,-0.04634 0.09485,-0.0903 0.145508,-0.13188 0.05066,-0.04158 0.103241,-0.08057 0.157734,-0.116983 0.05449,-0.03641 0.110641,-0.07006 0.168441,-0.10096 0.0578,-0.03089 0.116976,-0.05888 0.177525,-0.08397 0.06055,-0.02508 0.122187,-0.04713 0.184902,-0.06616 0.06272,-0.01903 0.126211,-0.03493 0.190491,-0.04772 0.06428,-0.01278 0.129034,-0.02239 0.194256,-0.02881 0.06522,-0.0064 0.130603,-0.0096 0.196142,-0.0096 0.06554,2e-6 0.130922,0.0032 0.196146,0.0096 0.06522,0.0064 0.129974,0.01603 0.194254,0.02881 0.06428,0.01279 0.127777,0.02869 0.190494,0.04772 0.06272,0.01902 0.124352,0.04107 0.184899,0.06615 0.06055,0.02508 0.119728,0.05307 0.177528,0.08397 0.0578,0.03089 0.113945,0.06455 0.168438,0.100958 0.05449,0.03641 0.107075,0.07541 0.157738,0.116983 0.05066,0.04158 0.09916,0.08554 0.145504,0.131882 l 14.34,14.35 c 0.06913,0.06954 0.132797,0.143765 0.191013,0.222664 0.05821,0.07891 0.110336,0.161644 0.15638,0.248211 0.04604,0.08657 0.08551,0.176044 0.118389,0.268417 0.03288,0.09237 0.05883,0.186653 0.07785,0.282845 0.01902,0.09619 0.0309,0.193252 0.03564,0.291195 0.0047,0.09794 0.0023,0.195694 -0.0073,0.29327 -0.0096,0.09758 -0.02636,0.193924 -0.05017,0.289043 -0.02381,0.09512 -0.05445,0.187985 -0.09192,0.278595 -0.03746,0.09061 -0.08136,0.177998 -0.131679,0.262154 -0.05032,0.08416 -0.106522,0.164177 -0.16861,0.24007 -0.06209,0.07589 -0.129398,0.146832 -0.20192,0.212822 -0.07252,0.06599 -0.149482,0.12632 -0.23088,0.180992 -0.0814,0.05467 -0.166352,0.103096 -0.254872,0.145272 -0.08852,0.04218 -0.179641,0.07765 -0.27338,0.106422 -0.09374,0.02877 -0.189075,0.05053 -0.286011,0.06529 C 46.195549,47.992008 46.098053,47.999588 46,48 Z"
             style="fill:#a6a6a6;fill-opacity:1;fill-rule:nonzero;stroke:none"
             id="path46" /></g></g></g></g></svg>
